<?xml version="1.0" encoding="utf-8"?>
<svg width="365px" height="365px" viewBox="0 0 365 365" version="1.1" xmlns:xlink="http://www.w3.org/1999/xlink" xmlns="http://www.w3.org/2000/svg">
  <defs>
    <path d="M0 0L365 0L365 365L0 365L0 0Z" id="path_1" />
    <clipPath id="mask_1">
      <use xlink:href="#path_1" />
    </clipPath>
  </defs>
  <g id="Facebook-icon">
    <path d="M0 0L365 0L365 365L0 365L0 0Z" id="Background" fill="#FFFFFF" fill-opacity="0" fill-rule="evenodd" stroke="none" />
    <g clip-path="url(#mask_1)">
      <path d="M288.958 45.625L76.0417 45.625C59.2365 45.625 45.625 59.2365 45.625 76.0417L45.625 288.958C45.625 305.764 59.2365 319.375 76.0417 319.375L191.944 319.375L191.944 213.51L156.311 213.51L156.311 172.067L191.944 172.067L191.944 141.574C191.944 106.23 213.555 86.9612 245.098 86.9612C255.728 86.9308 266.344 87.4783 276.913 88.5581L276.913 125.514L255.196 125.514C238.01 125.514 234.665 133.636 234.665 145.62L234.665 172.006L275.727 172.006L270.389 213.449L234.421 213.449L234.421 319.375L288.958 319.375C305.764 319.375 319.375 305.764 319.375 288.958L319.375 76.0417C319.375 59.2365 305.764 45.625 288.958 45.625L288.958 45.625Z" id="Shape" fill="#FFFFFF" stroke="none" />
    </g>
  </g>
</svg>