<?xml version="1.0" encoding="utf-8"?>
<svg width="242px" height="242px" viewBox="0 0 242 242" version="1.1" xmlns:xlink="http://www.w3.org/1999/xlink" xmlns="http://www.w3.org/2000/svg">
  <defs>
    <path d="M0 0L242 0L242 242L0 242L0 0Z" id="path_1" />
    <clipPath id="mask_1">
      <use xlink:href="#path_1" />
    </clipPath>
  </defs>
  <g id="Twitter-icon">
    <path d="M0 0L242 0L242 242L0 242L0 0Z" id="Background" fill="#FFFFFF" fill-opacity="0" fill-rule="evenodd" stroke="none" />
    <g clip-path="url(#mask_1)">
      <path d="M226.875 49.8652C218.958 53.292 210.982 55.8325 202.179 56.6597C210.982 51.5786 218.072 43.0117 221.558 33.6768C212.754 38.7578 203.951 42.1846 194.262 43.898C185.399 35.3901 173.938 30.25 161.589 30.25C137.779 30.25 118.341 49.0381 118.341 72.0801C118.341 75.4477 118.341 78.8745 119.228 81.4741C73.7344 81.4741 42.5391 55.8325 21.3877 30.25C16.9565 36.2173 15.1841 43.898 15.1841 51.5786C15.1841 66.0537 23.1602 78.8745 34.6221 86.5552C27.5322 85.728 20.5015 84.0147 15.1841 81.4741C15.1841 81.4741 15.1841 81.4741 15.1841 82.3013C15.1841 102.803 30.1909 119.818 49.6289 123.245C46.084 124.072 42.5391 124.959 38.1079 124.959C35.5083 124.959 32.8496 124.959 30.1909 124.131C35.5083 141.206 60.1455 160.821 79.5244 160.821C64.5176 171.87 50.5742 181.5 22.6875 181.5C19.1426 181.5 21.9785 181.5 15.125 181.5C34.5039 193.435 57.4868 196.625 81.2969 196.625C161.589 196.625 204.837 132.639 204.837 77.1611C204.837 75.4477 204.837 73.7934 204.837 72.0801C213.641 66.0537 220.73 58.4321 226.875 49.8652" id="Shape" fill="#FFFFFF" stroke="none" />
    </g>
  </g>
</svg>