<?xml version="1.0" encoding="utf-8"?>
<svg width="418px" height="418px" viewBox="0 0 418 418" version="1.1" xmlns:xlink="http://www.w3.org/1999/xlink" xmlns="http://www.w3.org/2000/svg">
  <defs>
    <path d="M0 0L418 0L418 418L0 418L0 0Z" id="path_1" />
    <clipPath id="mask_1">
      <use xlink:href="#path_1" />
    </clipPath>
  </defs>
  <g id="Youtube-icon">
    <path d="M0 0L418 0L418 418L0 418L0 0Z" id="Background" fill="#FFFFFF" fill-opacity="0" fill-rule="evenodd" stroke="none" />
    <g clip-path="url(#mask_1)">
      <path d="M209 52.25C155.73 52.25 108.582 57.7608 79.9058 62.0469C56.4341 65.5166 37.7588 83.8858 33.4727 107.459C29.7988 128.074 26.125 158.179 26.125 195.938C26.125 233.696 29.7988 263.801 33.4727 284.416C37.7588 307.989 56.4341 326.256 79.9058 329.828C108.684 334.114 156.036 339.625 209 339.625C261.964 339.625 309.214 334.114 337.992 329.828L338.094 329.828C361.566 326.358 380.241 307.989 384.527 284.416C388.201 263.699 391.875 233.594 391.875 195.938C391.875 158.179 388.201 128.074 384.425 107.459C380.241 83.8858 361.566 65.5166 338.094 62.0469C309.418 57.7608 262.271 52.25 209 52.25L209 52.25ZM209 78.375C260.434 78.375 306.458 83.6816 334.216 87.8657C346.462 89.7026 356.361 99.2954 358.708 112.052C362.178 131.339 365.75 159.914 365.75 195.938C365.75 231.961 362.178 260.536 358.811 279.721C356.463 292.58 346.564 302.172 334.216 304.009C306.254 308.091 260.127 313.5 209 313.5C157.873 313.5 111.644 308.091 83.7837 304.009C71.5376 302.172 61.5366 292.58 59.1895 279.721C55.8218 260.434 52.25 231.961 52.25 195.938C52.25 159.812 55.8218 131.339 59.1895 112.052C61.5366 99.2954 71.4355 89.7026 83.6816 87.9678L83.7837 87.9678C111.541 83.7837 157.566 78.375 209 78.375L209 78.375ZM156.75 130.625L156.75 261.25L287.375 195.938L156.75 130.625Z" id="Shape" fill="#FFFFFF" fill-rule="evenodd" stroke="none" />
    </g>
  </g>
</svg>